<?xml version="1.0" encoding="UTF-8"?>
<svg id="Capa_1" data-name="Capa 1" xmlns="http://www.w3.org/2000/svg" xmlns:xlink="http://www.w3.org/1999/xlink" viewBox="0 0 442.55 581.31">
  <defs>
    <style>
      .cls-1 {
        fill: url(#Degradado_sin_nombre_13-2);
      }

      .cls-2 {
        fill: url(#Degradado_sin_nombre_13);
      }
    </style>
    <linearGradient id="Degradado_sin_nombre_13" data-name="Degradado sin nombre 13" x1="78.59" y1="394.87" x2="440.2" y2="394.87" gradientUnits="userSpaceOnUse">
      <stop offset="0" stop-color="#8c2536"/>
      <stop offset=".43" stop-color="#8d2637"/>
      <stop offset=".58" stop-color="#932d3e"/>
      <stop offset=".69" stop-color="#9e3949"/>
      <stop offset=".78" stop-color="#ad4a59"/>
      <stop offset=".86" stop-color="#c0606e"/>
      <stop offset=".93" stop-color="#d87b88"/>
      <stop offset=".99" stop-color="#f59ba6"/>
      <stop offset="1" stop-color="#fda4af"/>
    </linearGradient>
    <linearGradient id="Degradado_sin_nombre_13-2" data-name="Degradado sin nombre 13" x1="0" y1="136.45" x2="442.55" y2="136.45" xlink:href="#Degradado_sin_nombre_13"/>
  </defs>
  <path class="cls-2" d="M434.43,239.12c-39.04-6.17-69.56-16.12-94.21-30.69-46.48,32.7-118.27,90.45-261.63,76.59,77.84,53.98,109.81,157.15,134.78,290.7,1.4,7.46,12.07,7.46,13.47,0,31.67-169.41,74.59-289.96,208.15-323.19,7.24-1.81,6.81-12.25-.57-13.42Z"/>
  <path class="cls-1" d="M439.54.92c-17.99,39.28-71.35,146.31-132.92,181.34-37.24-37.72-57.59-94.31-79.91-175.98-1.84-6.72-11.39-6.72-13.22,0C174.16,150.27,140.91,216.35,10.45,238.35c-1.54.26-3.11.52-4.68.77-6.03.95-7.42,8.09-3.78,11.65,2.72,1.06,5.46,2.08,8.22,3.06,131.49,47.24,257.37-1.94,317.16-53.79,57.82-46.82,97.21-124.47,115.14-198.08.45-1.85-2.17-2.76-2.97-1.03Z"/>
</svg>